<?xml version="1.0" encoding="utf-8"?>
<!-- Generator: Adobe Illustrator 16.0.0, SVG Export Plug-In . SVG Version: 6.00 Build 0)  -->
<!DOCTYPE svg PUBLIC "-//W3C//DTD SVG 1.1//EN" "http://www.w3.org/Graphics/SVG/1.1/DTD/svg11.dtd">
<svg version="1.1" id="Layer_1" xmlns="http://www.w3.org/2000/svg" xmlns:xlink="http://www.w3.org/1999/xlink" x="0px" y="0px"
	 width="400px" height="400px" viewBox="0 0 400 400" enable-background="new 0 0 400 400" xml:space="preserve">
<path fill="#FFFFFF" d="M380,200h-5c0,96.495-78.505,175-175,175c-96.496,0-175-78.505-175-175S103.505,25,200,25v-5v-5
	C97.991,15,15,97.991,15,200c0,102.01,82.991,185,185,185c102.009,0,185-82.99,185-185H380z">
	<animateTransform
                    attributeName="transform"
                    type="rotate"
                    from="360 200 200"
                    to="0 200 200"
                    dur="1s"
                    repeatCount="indefinite"/>
        </path>
<path fill="#FFFFFF" d="M56,200h5c0-76.645,62.354-139,139-139s139,62.355,139,139s-62.355,139-139,139v5v5
	c82.159,0,149-66.842,149-149c0-82.159-66.841-149-149-149c-82.159,0-149,66.841-149,149H56z">
	<animateTransform
	                    attributeName="transform"
	                    type="rotate"
	                    from="0 200 200"
	                    to="360 200 200"
	                    dur="1s"
	                    repeatCount="indefinite"/>
	        </path>
<g>
	<polygon fill="#FFFFFF" points="244.313,183.923 228.107,200.128 212.26,200.128 226.398,185.99 226.383,185.974 226.403,185.974 
		226.402,163.05 242.616,146.836 239.081,143.3 221.408,160.974 221.403,160.974 221.403,183.914 205.189,200.128 205.178,200.128 
		205.178,200.139 191.058,214.26 191.058,198.423 207.271,182.21 203.736,178.674 186.063,196.348 186.059,196.348 186.059,219.258 
		152.152,253.165 152.153,253.165 152.152,253.165 155.688,256.7 155.688,256.7 155.688,256.7 191.041,221.348 191.058,221.348 
		191.058,221.33 207.26,205.129 230.162,205.129 230.17,205.137 247.848,187.458 	"/>
	<g>
		<path fill="#FFFFFF" d="M298.428,150.928h-23.021C284.63,165.052,290,181.91,290,200c0,49.625-40.374,90-90,90s-90-40.374-90-90
			c0-49.626,40.374-90,90-90c17.934,0,34.658,5.275,48.706,14.352v-22.961C234.016,94.105,217.479,90,200,90
			c-60.654,0-110,49.346-110,110c0,60.654,49.346,110,110,110s110-49.346,110-110C310,182.376,305.826,165.71,298.428,150.928z"/>
		<path fill="#FFFFFF" d="M269.458,114.77v15.65h15.674C280.443,124.695,275.19,119.45,269.458,114.77z"/>
	</g>
</g>
</svg>
